<?xml version="1.0" standalone="no"?>
<svg width="1920" height="816" xmlns="http://www.w3.org/2000/svg" id="svgvm0"><g transform="translate(5,5)" style="font-family: sans-serif;"><g/><g transform="translate(0,1)"><g><g class="tactic initial-access" transform="translate(0, 0)"><g class="techniques"><g class="technique T0822" transform="translate(0, 53.733333333333334)"><rect class="cell" height="53.733333333333334" width="159.16666666666666" fill="#ffbf66" stroke="#6B7279"/><polygon class="sidebar" transform="translate(0, 53.733333333333334)" points="0,0 12,0 12,0" fill="#6B7279" visibility="hidden"/><text font-size="15" fill="black"><tspan x="1" y="23.116666666666667">External</tspan><tspan x="1" y="37.61666666666667">Remote Services</tspan></text></g><g class="technique T0886" transform="translate(0, 107.46666666666667)"><rect class="cell" height="53.733333333333334" width="159.16666666666666" fill="#ffbf66" stroke="#6B7279"/><polygon class="sidebar" transform="translate(0, 53.733333333333334)" points="0,0 12,0 12,0" fill="#6B7279" visibility="hidden"/><text font-size="15" fill="black"><tspan x="1" y="30.366666666666667">Remote Services</tspan></text></g><g class="technique T0866" transform="translate(0, 161.20000000000002)"><rect class="cell" height="53.733333333333334" width="159.16666666666666" fill="#ffc366" stroke="#6B7279"/><polygon class="sidebar" transform="translate(0, 53.733333333333334)" points="0,0 12,0 12,0" fill="#6B7279" visibility="hidden"/><text font-size="15" fill="black"><tspan x="1" y="23.116666666666667">Exploitation</tspan><tspan x="1" y="37.61666666666667">of Remote Services</tspan></text></g><g class="technique T0819" transform="translate(0, 214.93333333333334)"><rect class="cell" height="53.733333333333334" width="159.16666666666666" fill="#ffcb66" stroke="#6B7279"/><polygon class="sidebar" transform="translate(0, 53.733333333333334)" points="0,0 12,0 12,0" fill="#6B7279" visibility="hidden"/><text font-size="15" fill="black"><tspan x="1" y="15.7">Exploit</tspan><tspan x="1" y="30.366666666666667">Public-Facing</tspan><tspan x="1" y="45.03333333333333">Application</tspan></text></g><g class="technique T0864" transform="translate(0, 268.66666666666663)"><rect class="cell" height="53.733333333333334" width="159.16666666666666" fill="#ffcb66" stroke="#6B7279"/><polygon class="sidebar" transform="translate(0, 53.733333333333334)" points="0,0 12,0 12,0" fill="#6B7279" visibility="hidden"/><text font-size="15" fill="black"><tspan x="1" y="23.116666666666667">Transient</tspan><tspan x="1" y="37.61666666666667">Cyber Asset</tspan></text></g><g class="technique T0860" transform="translate(0, 322.40000000000003)"><rect class="cell" height="53.733333333333334" width="159.16666666666666" fill="#ffcf66" stroke="#6B7279"/><polygon class="sidebar" transform="translate(0, 53.733333333333334)" points="0,0 12,0 12,0" fill="#6B7279" visibility="hidden"/><text font-size="15" fill="black"><tspan x="1" y="23.116666666666667">Wireless</tspan><tspan x="1" y="37.61666666666667">Compromise</tspan></text></g><g class="technique T0817" transform="translate(0, 376.1333333333333)"><rect class="cell" height="53.733333333333334" width="159.16666666666666" fill="#ffd366" stroke="#6B7279"/><polygon class="sidebar" transform="translate(0, 53.733333333333334)" points="0,0 12,0 12,0" fill="#6B7279" visibility="hidden"/><text font-size="15" fill="black"><tspan x="1" y="23.116666666666667">Drive-by</tspan><tspan x="1" y="37.61666666666667">Compromise</tspan></text></g><g class="technique T0848" transform="translate(0, 429.8666666666667)"><rect class="cell" height="53.733333333333334" width="159.16666666666666" fill="#ffd766" stroke="#6B7279"/><polygon class="sidebar" transform="translate(0, 53.733333333333334)" points="0,0 12,0 12,0" fill="#6B7279" visibility="hidden"/><text font-size="15" fill="black"><tspan x="1" y="30.366666666666667">Rogue Master</tspan></text></g><g class="technique T0865" transform="translate(0, 483.59999999999997)"><rect class="cell" height="53.733333333333334" width="159.16666666666666" fill="#ffd766" stroke="#6B7279"/><polygon class="sidebar" transform="translate(0, 53.733333333333334)" points="0,0 12,0 12,0" fill="#6B7279" visibility="hidden"/><text font-size="15" fill="black"><tspan x="1" y="23.116666666666667">Spearphishing</tspan><tspan x="1" y="37.61666666666667">Attachment</tspan></text></g><g class="technique T0847" transform="translate(0, 537.3333333333333)"><rect class="cell" height="53.733333333333334" width="159.16666666666666" fill="#ffdf66" stroke="#6B7279"/><polygon class="sidebar" transform="translate(0, 53.733333333333334)" points="0,0 12,0 12,0" fill="#6B7279" visibility="hidden"/><text font-size="15" fill="black"><tspan x="1" y="15.7">Replication</tspan><tspan x="1" y="30.366666666666667">Through</tspan><tspan x="1" y="45.03333333333333">Removable Media</tspan></text></g><g class="technique T0862" transform="translate(0, 591.0666666666666)"><rect class="cell" height="53.733333333333334" width="159.16666666666666" fill="#ffe366" stroke="#6B7279"/><polygon class="sidebar" transform="translate(0, 53.733333333333334)" points="0,0 12,0 12,0" fill="#6B7279" visibility="hidden"/><text font-size="15" fill="black"><tspan x="1" y="23.116666666666667">Supply</tspan><tspan x="1" y="37.61666666666667">Chain Compromise</tspan></text></g><g class="technique T0883" transform="translate(0, 644.8000000000001)"><rect class="cell" height="53.733333333333334" width="159.16666666666666" fill="#ffe766" stroke="#6B7279"/><polygon class="sidebar" transform="translate(0, 53.733333333333334)" points="0,0 12,0 12,0" fill="#6B7279" visibility="hidden"/><text font-size="15" fill="black"><tspan x="1" y="23.116666666666667">Internet</tspan><tspan x="1" y="37.61666666666667">Accessible Device</tspan></text></g></g><g class="subtechniques"/><g class="tactic-label"><text font-size="12" fill="black" font-weight="bold"><tspan text-anchor="middle" x="79.58333333333333" y="30.366666666666667">Initial Access</tspan></text></g></g><g class="tactic execution" transform="translate(159.16666666666666, 0)"><g class="techniques"><g class="technique T0858" transform="translate(0, 53.733333333333334)"><rect class="cell" height="53.733333333333334" width="159.16666666666666" fill="#ffc766" stroke="#6B7279"/><polygon class="sidebar" transform="translate(0, 53.733333333333334)" points="0,0 12,0 12,0" fill="#6B7279" visibility="hidden"/><text font-size="15" fill="black"><tspan x="1" y="23.116666666666667">Change</tspan><tspan x="1" y="37.61666666666667">Operating Mode</tspan></text></g><g class="technique T0863" transform="translate(0, 107.46666666666667)"><rect class="cell" height="53.733333333333334" width="159.16666666666666" fill="#ffcf66" stroke="#6B7279"/><polygon class="sidebar" transform="translate(0, 53.733333333333334)" points="0,0 12,0 12,0" fill="#6B7279" visibility="hidden"/><text font-size="15" fill="black"><tspan x="1" y="30.366666666666667">User Execution</tspan></text></g><g class="technique T0871" transform="translate(0, 161.20000000000002)"><rect class="cell" height="53.733333333333334" width="159.16666666666666" fill="#ffd766" stroke="#6B7279"/><polygon class="sidebar" transform="translate(0, 53.733333333333334)" points="0,0 12,0 12,0" fill="#6B7279" visibility="hidden"/><text font-size="15" fill="black"><tspan x="1" y="23.116666666666667">Execution</tspan><tspan x="1" y="37.61666666666667">through API</tspan></text></g><g class="technique T0853" transform="translate(0, 214.93333333333334)"><rect class="cell" height="53.733333333333334" width="159.16666666666666" fill="#ffd766" stroke="#6B7279"/><polygon class="sidebar" transform="translate(0, 53.733333333333334)" points="0,0 12,0 12,0" fill="#6B7279" visibility="hidden"/><text font-size="15" fill="black"><tspan x="1" y="30.366666666666667">Scripting</tspan></text></g><g class="technique T0807" transform="translate(0, 268.66666666666663)"><rect class="cell" height="53.733333333333334" width="159.16666666666666" fill="#ffdf66" stroke="#6B7279"/><polygon class="sidebar" transform="translate(0, 53.733333333333334)" points="0,0 12,0 12,0" fill="#6B7279" visibility="hidden"/><text font-size="15" fill="black"><tspan x="1" y="23.116666666666667">Command-Line</tspan><tspan x="1" y="37.61666666666667">Interface</tspan></text></g><g class="technique T0874" transform="translate(0, 322.40000000000003)"><rect class="cell" height="53.733333333333334" width="159.16666666666666" fill="#ffdf66" stroke="#6B7279"/><polygon class="sidebar" transform="translate(0, 53.733333333333334)" points="0,0 12,0 12,0" fill="#6B7279" visibility="hidden"/><text font-size="15" fill="black"><tspan x="1" y="30.366666666666667">Hooking</tspan></text></g><g class="technique T0821" transform="translate(0, 376.1333333333333)"><rect class="cell" height="53.733333333333334" width="159.16666666666666" fill="#ffdf66" stroke="#6B7279"/><polygon class="sidebar" transform="translate(0, 53.733333333333334)" points="0,0 12,0 12,0" fill="#6B7279" visibility="hidden"/><text font-size="15" fill="black"><tspan x="1" y="23.116666666666667">Modify</tspan><tspan x="1" y="37.61666666666667">Controller Tasking</tspan></text></g><g class="technique T0834" transform="translate(0, 429.8666666666667)"><rect class="cell" height="53.733333333333334" width="159.16666666666666" fill="#ffe766" stroke="#6B7279"/><polygon class="sidebar" transform="translate(0, 53.733333333333334)" points="0,0 12,0 12,0" fill="#6B7279" visibility="hidden"/><text font-size="15" fill="black"><tspan x="1" y="30.366666666666667">Native API</tspan></text></g><g class="technique T0823" transform="translate(0, 483.59999999999997)"><rect class="cell" height="53.733333333333334" width="159.16666666666666" fill="#ffffff" stroke="#6B7279"/><polygon class="sidebar" transform="translate(0, 53.733333333333334)" points="0,0 12,0 12,0" fill="#6B7279" visibility="hidden"/><text font-size="15" fill="#000000"><tspan x="1" y="23.116666666666667">Graphical</tspan><tspan x="1" y="37.61666666666667">User Interface</tspan></text></g></g><g class="subtechniques"/><g class="tactic-label"><text font-size="12" fill="black" font-weight="bold"><tspan text-anchor="middle" x="79.58333333333333" y="30.366666666666667">Execution</tspan></text></g></g><g class="tactic persistence" transform="translate(318.3333333333333, 0)"><g class="techniques"><g class="technique T0857" transform="translate(0, 53.733333333333334)"><rect class="cell" height="53.733333333333334" width="159.16666666666666" fill="#ffaf66" stroke="#6B7279"/><polygon class="sidebar" transform="translate(0, 53.733333333333334)" points="0,0 12,0 12,0" fill="#6B7279" visibility="hidden"/><text font-size="15" fill="black"><tspan x="1" y="30.366666666666667">System Firmware</tspan></text></g><g class="technique T0839" transform="translate(0, 107.46666666666667)"><rect class="cell" height="53.733333333333334" width="159.16666666666666" fill="#ffb266" stroke="#6B7279"/><polygon class="sidebar" transform="translate(0, 53.733333333333334)" points="0,0 12,0 12,0" fill="#6B7279" visibility="hidden"/><text font-size="15" fill="black"><tspan x="1" y="30.366666666666667">Module Firmware</tspan></text></g><g class="technique T0859" transform="translate(0, 161.20000000000002)"><rect class="cell" height="53.733333333333334" width="159.16666666666666" fill="#ffb666" stroke="#6B7279"/><polygon class="sidebar" transform="translate(0, 53.733333333333334)" points="0,0 12,0 12,0" fill="#6B7279" visibility="hidden"/><text font-size="15" fill="black"><tspan x="1" y="30.366666666666667">Valid Accounts</tspan></text></g><g class="technique T0873" transform="translate(0, 214.93333333333334)"><rect class="cell" height="53.733333333333334" width="159.16666666666666" fill="#ffd766" stroke="#6B7279"/><polygon class="sidebar" transform="translate(0, 53.733333333333334)" points="0,0 12,0 12,0" fill="#6B7279" visibility="hidden"/><text font-size="15" fill="black"><tspan x="1" y="23.116666666666667">Project</tspan><tspan x="1" y="37.61666666666667">File Infection</tspan></text></g><g class="technique T0889" transform="translate(0, 268.66666666666663)"><rect class="cell" height="53.733333333333334" width="159.16666666666666" fill="#ffdf66" stroke="#6B7279"/><polygon class="sidebar" transform="translate(0, 53.733333333333334)" points="0,0 12,0 12,0" fill="#6B7279" visibility="hidden"/><text font-size="15" fill="black"><tspan x="1" y="30.366666666666667">Modify Program</tspan></text></g><g class="technique T0891" transform="translate(0, 322.40000000000003)"><rect class="cell" height="53.733333333333334" width="159.16666666666666" fill="#ffe766" stroke="#6B7279"/><polygon class="sidebar" transform="translate(0, 53.733333333333334)" points="0,0 12,0 12,0" fill="#6B7279" visibility="hidden"/><text font-size="15" fill="black"><tspan x="1" y="23.116666666666667">Hardcoded</tspan><tspan x="1" y="37.61666666666667">Credentials</tspan></text></g></g><g class="subtechniques"/><g class="tactic-label"><text font-size="12" fill="black" font-weight="bold"><tspan text-anchor="middle" x="79.58333333333333" y="30.366666666666667">Persistence</tspan></text></g></g><g class="tactic privilege-escalation" transform="translate(477.5, 0)"><g class="techniques"><g class="technique T0890" transform="translate(0, 53.733333333333334)"><rect class="cell" height="53.733333333333334" width="159.16666666666666" fill="#ffdb66" stroke="#6B7279"/><polygon class="sidebar" transform="translate(0, 53.733333333333334)" points="0,0 12,0 12,0" fill="#6B7279" visibility="hidden"/><text font-size="15" fill="black"><tspan x="1" y="15.7">Exploitation</tspan><tspan x="1" y="30.366666666666667">for Privilege</tspan><tspan x="1" y="45.03333333333333">Escalation</tspan></text></g><g class="technique T0874" transform="translate(0, 107.46666666666667)"><rect class="cell" height="53.733333333333334" width="159.16666666666666" fill="#ffdf66" stroke="#6B7279"/><polygon class="sidebar" transform="translate(0, 53.733333333333334)" points="0,0 12,0 12,0" fill="#6B7279" visibility="hidden"/><text font-size="15" fill="black"><tspan x="1" y="30.366666666666667">Hooking</tspan></text></g></g><g class="subtechniques"/><g class="tactic-label"><text font-size="12" fill="black" font-weight="bold"><tspan text-anchor="middle" x="79.58333333333333" y="23.116666666666667">Privilege</tspan><tspan text-anchor="middle" x="79.58333333333333" y="37.61666666666667">Escalation</tspan></text></g></g><g class="tactic evasion" transform="translate(636.6666666666666, 0)"><g class="techniques"><g class="technique T0858" transform="translate(0, 53.733333333333334)"><rect class="cell" height="53.733333333333334" width="159.16666666666666" fill="#ffc766" stroke="#6B7279"/><polygon class="sidebar" transform="translate(0, 53.733333333333334)" points="0,0 12,0 12,0" fill="#6B7279" visibility="hidden"/><text font-size="15" fill="black"><tspan x="1" y="23.116666666666667">Change</tspan><tspan x="1" y="37.61666666666667">Operating Mode</tspan></text></g><g class="technique T0849" transform="translate(0, 107.46666666666667)"><rect class="cell" height="53.733333333333334" width="159.16666666666666" fill="#ffd766" stroke="#6B7279"/><polygon class="sidebar" transform="translate(0, 53.733333333333334)" points="0,0 12,0 12,0" fill="#6B7279" visibility="hidden"/><text font-size="15" fill="black"><tspan x="1" y="30.366666666666667">Masquerading</tspan></text></g><g class="technique T0856" transform="translate(0, 161.20000000000002)"><rect class="cell" height="53.733333333333334" width="159.16666666666666" fill="#ffd766" stroke="#6B7279"/><polygon class="sidebar" transform="translate(0, 53.733333333333334)" points="0,0 12,0 12,0" fill="#6B7279" visibility="hidden"/><text font-size="15" fill="black"><tspan x="1" y="23.116666666666667">Spoof</tspan><tspan x="1" y="37.61666666666667">Reporting Message</tspan></text></g><g class="technique T0820" transform="translate(0, 214.93333333333334)"><rect class="cell" height="53.733333333333334" width="159.16666666666666" fill="#ffdb66" stroke="#6B7279"/><polygon class="sidebar" transform="translate(0, 53.733333333333334)" points="0,0 12,0 12,0" fill="#6B7279" visibility="hidden"/><text font-size="15" fill="black"><tspan x="1" y="23.116666666666667">Exploitation</tspan><tspan x="1" y="37.61666666666667">for Evasion</tspan></text></g><g class="technique T0872" transform="translate(0, 268.66666666666663)"><rect class="cell" height="53.733333333333334" width="159.16666666666666" fill="#ffe766" stroke="#6B7279"/><polygon class="sidebar" transform="translate(0, 53.733333333333334)" points="0,0 12,0 12,0" fill="#6B7279" visibility="hidden"/><text font-size="15" fill="black"><tspan x="1" y="23.116666666666667">Indicator</tspan><tspan x="1" y="37.61666666666667">Removal on Host</tspan></text></g><g class="technique T0851" transform="translate(0, 322.40000000000003)"><rect class="cell" height="53.733333333333334" width="159.16666666666666" fill="#ffe766" stroke="#6B7279"/><polygon class="sidebar" transform="translate(0, 53.733333333333334)" points="0,0 12,0 12,0" fill="#6B7279" visibility="hidden"/><text font-size="15" fill="black"><tspan x="1" y="30.366666666666667">Rootkit</tspan></text></g></g><g class="subtechniques"/><g class="tactic-label"><text font-size="12" fill="black" font-weight="bold"><tspan text-anchor="middle" x="79.58333333333333" y="30.366666666666667">Evasion</tspan></text></g></g><g class="tactic discovery" transform="translate(795.8333333333333, 0)"><g class="techniques"><g class="technique T0842" transform="translate(0, 53.733333333333334)"><rect class="cell" height="53.733333333333334" width="159.16666666666666" fill="#ffc766" stroke="#6B7279"/><polygon class="sidebar" transform="translate(0, 53.733333333333334)" points="0,0 12,0 12,0" fill="#6B7279" visibility="hidden"/><text font-size="15" fill="black"><tspan x="1" y="30.366666666666667">Network Sniffing</tspan></text></g><g class="technique T0887" transform="translate(0, 107.46666666666667)"><rect class="cell" height="53.733333333333334" width="159.16666666666666" fill="#ffdf66" stroke="#6B7279"/><polygon class="sidebar" transform="translate(0, 53.733333333333334)" points="0,0 12,0 12,0" fill="#6B7279" visibility="hidden"/><text font-size="15" fill="black"><tspan x="1" y="30.366666666666667">Wireless Sniffing</tspan></text></g><g class="technique T0846" transform="translate(0, 161.20000000000002)"><rect class="cell" height="53.733333333333334" width="159.16666666666666" fill="#ffe766" stroke="#6B7279"/><polygon class="sidebar" transform="translate(0, 53.733333333333334)" points="0,0 12,0 12,0" fill="#6B7279" visibility="hidden"/><text font-size="15" fill="black"><tspan x="1" y="23.116666666666667">Remote</tspan><tspan x="1" y="37.61666666666667">System Discovery</tspan></text></g><g class="technique T0888" transform="translate(0, 214.93333333333334)"><rect class="cell" height="53.733333333333334" width="159.16666666666666" fill="#ffe766" stroke="#6B7279"/><polygon class="sidebar" transform="translate(0, 53.733333333333334)" points="0,0 12,0 12,0" fill="#6B7279" visibility="hidden"/><text font-size="15" fill="black"><tspan x="1" y="15.7">Remote</tspan><tspan x="1" y="30.366666666666667">System Information</tspan><tspan x="1" y="45.03333333333333">Discovery</tspan></text></g><g class="technique T0840" transform="translate(0, 268.66666666666663)"><rect class="cell" height="53.733333333333334" width="159.16666666666666" fill="#ffffff" stroke="#6B7279"/><polygon class="sidebar" transform="translate(0, 53.733333333333334)" points="0,0 12,0 12,0" fill="#6B7279" visibility="hidden"/><text font-size="15" fill="#000000"><tspan x="1" y="23.116666666666667">Network Connection</tspan><tspan x="1" y="37.61666666666667">Enumeration</tspan></text></g></g><g class="subtechniques"/><g class="tactic-label"><text font-size="12" fill="black" font-weight="bold"><tspan text-anchor="middle" x="79.58333333333333" y="30.366666666666667">Discovery</tspan></text></g></g><g class="tactic lateral-movement" transform="translate(955, 0)"><g class="techniques"><g class="technique T0859" transform="translate(0, 53.733333333333334)"><rect class="cell" height="53.733333333333334" width="159.16666666666666" fill="#ffb666" stroke="#6B7279"/><polygon class="sidebar" transform="translate(0, 53.733333333333334)" points="0,0 12,0 12,0" fill="#6B7279" visibility="hidden"/><text font-size="15" fill="black"><tspan x="1" y="30.366666666666667">Valid Accounts</tspan></text></g><g class="technique T0843" transform="translate(0, 107.46666666666667)"><rect class="cell" height="53.733333333333334" width="159.16666666666666" fill="#ffbf66" stroke="#6B7279"/><polygon class="sidebar" transform="translate(0, 53.733333333333334)" points="0,0 12,0 12,0" fill="#6B7279" visibility="hidden"/><text font-size="15" fill="black"><tspan x="1" y="30.366666666666667">Program Download</tspan></text></g><g class="technique T0886" transform="translate(0, 161.20000000000002)"><rect class="cell" height="53.733333333333334" width="159.16666666666666" fill="#ffbf66" stroke="#6B7279"/><polygon class="sidebar" transform="translate(0, 53.733333333333334)" points="0,0 12,0 12,0" fill="#6B7279" visibility="hidden"/><text font-size="15" fill="black"><tspan x="1" y="30.366666666666667">Remote Services</tspan></text></g><g class="technique T0866" transform="translate(0, 214.93333333333334)"><rect class="cell" height="53.733333333333334" width="159.16666666666666" fill="#ffc366" stroke="#6B7279"/><polygon class="sidebar" transform="translate(0, 53.733333333333334)" points="0,0 12,0 12,0" fill="#6B7279" visibility="hidden"/><text font-size="15" fill="black"><tspan x="1" y="23.116666666666667">Exploitation</tspan><tspan x="1" y="37.61666666666667">of Remote Services</tspan></text></g><g class="technique T0812" transform="translate(0, 268.66666666666663)"><rect class="cell" height="53.733333333333334" width="159.16666666666666" fill="#ffdf66" stroke="#6B7279"/><polygon class="sidebar" transform="translate(0, 53.733333333333334)" points="0,0 12,0 12,0" fill="#6B7279" visibility="hidden"/><text font-size="15" fill="black"><tspan x="1" y="23.116666666666667">Default</tspan><tspan x="1" y="37.61666666666667">Credentials</tspan></text></g><g class="technique T0891" transform="translate(0, 322.40000000000003)"><rect class="cell" height="53.733333333333334" width="159.16666666666666" fill="#ffe766" stroke="#6B7279"/><polygon class="sidebar" transform="translate(0, 53.733333333333334)" points="0,0 12,0 12,0" fill="#6B7279" visibility="hidden"/><text font-size="15" fill="black"><tspan x="1" y="23.116666666666667">Hardcoded</tspan><tspan x="1" y="37.61666666666667">Credentials</tspan></text></g><g class="technique T0867" transform="translate(0, 376.1333333333333)"><rect class="cell" height="53.733333333333334" width="159.16666666666666" fill="#ffe766" stroke="#6B7279"/><polygon class="sidebar" transform="translate(0, 53.733333333333334)" points="0,0 12,0 12,0" fill="#6B7279" visibility="hidden"/><text font-size="15" fill="black"><tspan x="1" y="23.116666666666667">Lateral</tspan><tspan x="1" y="37.61666666666667">Tool Transfer</tspan></text></g></g><g class="subtechniques"/><g class="tactic-label"><text font-size="12" fill="black" font-weight="bold"><tspan text-anchor="middle" x="79.58333333333333" y="30.366666666666667">Lateral Movement</tspan></text></g></g><g class="tactic collection" transform="translate(1114.1666666666665, 0)"><g class="techniques"><g class="technique T0830" transform="translate(0, 53.733333333333334)"><rect class="cell" height="53.733333333333334" width="159.16666666666666" fill="#ffbf66" stroke="#6B7279"/><polygon class="sidebar" transform="translate(0, 53.733333333333334)" points="0,0 12,0 12,0" fill="#6B7279" visibility="hidden"/><text font-size="15" fill="black"><tspan x="1" y="29.366666666666667">Adversary-in-the-Middle</tspan></text></g><g class="technique T0868" transform="translate(0, 107.46666666666667)"><rect class="cell" height="53.733333333333334" width="159.16666666666666" fill="#ffc766" stroke="#6B7279"/><polygon class="sidebar" transform="translate(0, 53.733333333333334)" points="0,0 12,0 12,0" fill="#6B7279" visibility="hidden"/><text font-size="15" fill="black"><tspan x="1" y="23.116666666666667">Detect</tspan><tspan x="1" y="37.61666666666667">Operating Mode</tspan></text></g><g class="technique T0861" transform="translate(0, 161.20000000000002)"><rect class="cell" height="53.733333333333334" width="159.16666666666666" fill="#ffc766" stroke="#6B7279"/><polygon class="sidebar" transform="translate(0, 53.733333333333334)" points="0,0 12,0 12,0" fill="#6B7279" visibility="hidden"/><text font-size="15" fill="black"><tspan x="1" y="23.116666666666667">Point &amp;</tspan><tspan x="1" y="37.61666666666667">Tag Identification</tspan></text></g><g class="technique T0845" transform="translate(0, 214.93333333333334)"><rect class="cell" height="53.733333333333334" width="159.16666666666666" fill="#ffc766" stroke="#6B7279"/><polygon class="sidebar" transform="translate(0, 53.733333333333334)" points="0,0 12,0 12,0" fill="#6B7279" visibility="hidden"/><text font-size="15" fill="black"><tspan x="1" y="30.366666666666667">Program Upload</tspan></text></g><g class="technique T0811" transform="translate(0, 268.66666666666663)"><rect class="cell" height="53.733333333333334" width="159.16666666666666" fill="#ffcf66" stroke="#6B7279"/><polygon class="sidebar" transform="translate(0, 53.733333333333334)" points="0,0 12,0 12,0" fill="#6B7279" visibility="hidden"/><text font-size="15" fill="black"><tspan x="1" y="15.7">Data</tspan><tspan x="1" y="30.366666666666667">from Information</tspan><tspan x="1" y="45.03333333333333">Repositories</tspan></text></g><g class="technique T0893" transform="translate(0, 322.40000000000003)"><rect class="cell" height="53.733333333333334" width="159.16666666666666" fill="#ffdf66" stroke="#6B7279"/><polygon class="sidebar" transform="translate(0, 53.733333333333334)" points="0,0 12,0 12,0" fill="#6B7279" visibility="hidden"/><text font-size="15" fill="black"><tspan x="1" y="23.116666666666667">Data</tspan><tspan x="1" y="37.61666666666667">from Local System</tspan></text></g><g class="technique T0887" transform="translate(0, 376.1333333333333)"><rect class="cell" height="53.733333333333334" width="159.16666666666666" fill="#ffdf66" stroke="#6B7279"/><polygon class="sidebar" transform="translate(0, 53.733333333333334)" points="0,0 12,0 12,0" fill="#6B7279" visibility="hidden"/><text font-size="15" fill="black"><tspan x="1" y="30.366666666666667">Wireless Sniffing</tspan></text></g><g class="technique T0802" transform="translate(0, 429.8666666666667)"><rect class="cell" height="53.733333333333334" width="159.16666666666666" fill="#ffe766" stroke="#6B7279"/><polygon class="sidebar" transform="translate(0, 53.733333333333334)" points="0,0 12,0 12,0" fill="#6B7279" visibility="hidden"/><text font-size="15" fill="black"><tspan x="1" y="23.116666666666667">Automated</tspan><tspan x="1" y="37.61666666666667">Collection</tspan></text></g><g class="technique T0877" transform="translate(0, 483.59999999999997)"><rect class="cell" height="53.733333333333334" width="159.16666666666666" fill="#ffffff" stroke="#6B7279"/><polygon class="sidebar" transform="translate(0, 53.733333333333334)" points="0,0 12,0 12,0" fill="#6B7279" visibility="hidden"/><text font-size="15" fill="#000000"><tspan x="1" y="30.366666666666667">I/O Image</tspan></text></g><g class="technique T0801" transform="translate(0, 537.3333333333333)"><rect class="cell" height="53.733333333333334" width="159.16666666666666" fill="#ffffff" stroke="#6B7279"/><polygon class="sidebar" transform="translate(0, 53.733333333333334)" points="0,0 12,0 12,0" fill="#6B7279" visibility="hidden"/><text font-size="15" fill="#000000"><tspan x="1" y="23.116666666666667">Monitor</tspan><tspan x="1" y="37.61666666666667">Process State</tspan></text></g><g class="technique T0852" transform="translate(0, 591.0666666666666)"><rect class="cell" height="53.733333333333334" width="159.16666666666666" fill="#ffffff" stroke="#6B7279"/><polygon class="sidebar" transform="translate(0, 53.733333333333334)" points="0,0 12,0 12,0" fill="#6B7279" visibility="hidden"/><text font-size="15" fill="#000000"><tspan x="1" y="30.366666666666667">Screen Capture</tspan></text></g></g><g class="subtechniques"/><g class="tactic-label"><text font-size="12" fill="black" font-weight="bold"><tspan text-anchor="middle" x="79.58333333333333" y="30.366666666666667">Collection</tspan></text></g></g><g class="tactic command-and-control" transform="translate(1273.3333333333333, 0)"><g class="techniques"><g class="technique T0885" transform="translate(0, 53.733333333333334)"><rect class="cell" height="53.733333333333334" width="159.16666666666666" fill="#ffcf66" stroke="#6B7279"/><polygon class="sidebar" transform="translate(0, 53.733333333333334)" points="0,0 12,0 12,0" fill="#6B7279" visibility="hidden"/><text font-size="15" fill="black"><tspan x="1" y="30.366666666666667">Commonly Used Port</tspan></text></g><g class="technique T0884" transform="translate(0, 107.46666666666667)"><rect class="cell" height="53.733333333333334" width="159.16666666666666" fill="#ffdf66" stroke="#6B7279"/><polygon class="sidebar" transform="translate(0, 53.733333333333334)" points="0,0 12,0 12,0" fill="#6B7279" visibility="hidden"/><text font-size="15" fill="black"><tspan x="1" y="30.366666666666667">Connection Proxy</tspan></text></g><g class="technique T0869" transform="translate(0, 161.20000000000002)"><rect class="cell" height="53.733333333333334" width="159.16666666666666" fill="#ffdf66" stroke="#6B7279"/><polygon class="sidebar" transform="translate(0, 53.733333333333334)" points="0,0 12,0 12,0" fill="#6B7279" visibility="hidden"/><text font-size="15" fill="black"><tspan x="1" y="15.7">Standard</tspan><tspan x="1" y="30.366666666666667">Application</tspan><tspan x="1" y="45.03333333333333">Layer Protocol</tspan></text></g></g><g class="subtechniques"/><g class="tactic-label"><text font-size="12" fill="black" font-weight="bold"><tspan text-anchor="middle" x="79.58333333333333" y="23.116666666666667">Command</tspan><tspan text-anchor="middle" x="79.58333333333333" y="37.61666666666667">and Control</tspan></text></g></g><g class="tactic inhibit-response-function" transform="translate(1432.5, 0)"><g class="techniques"><g class="technique T0857" transform="translate(0, 53.733333333333334)"><rect class="cell" height="53.733333333333334" width="159.16666666666666" fill="#ffaf66" stroke="#6B7279"/><polygon class="sidebar" transform="translate(0, 53.733333333333334)" points="0,0 12,0 12,0" fill="#6B7279" visibility="hidden"/><text font-size="15" fill="black"><tspan x="1" y="30.366666666666667">System Firmware</tspan></text></g><g class="technique T0816" transform="translate(0, 107.46666666666667)"><rect class="cell" height="53.733333333333334" width="159.16666666666666" fill="#ffbf66" stroke="#6B7279"/><polygon class="sidebar" transform="translate(0, 53.733333333333334)" points="0,0 12,0 12,0" fill="#6B7279" visibility="hidden"/><text font-size="15" fill="black"><tspan x="1" y="23.116666666666667">Device</tspan><tspan x="1" y="37.61666666666667">Restart/Shutdown</tspan></text></g><g class="technique T0800" transform="translate(0, 161.20000000000002)"><rect class="cell" height="53.733333333333334" width="159.16666666666666" fill="#ffc766" stroke="#6B7279"/><polygon class="sidebar" transform="translate(0, 53.733333333333334)" points="0,0 12,0 12,0" fill="#6B7279" visibility="hidden"/><text font-size="15" fill="black"><tspan x="1" y="23.116666666666667">Activate Firmware</tspan><tspan x="1" y="37.61666666666667">Update Mode</tspan></text></g><g class="technique T0838" transform="translate(0, 214.93333333333334)"><rect class="cell" height="53.733333333333334" width="159.16666666666666" fill="#ffc766" stroke="#6B7279"/><polygon class="sidebar" transform="translate(0, 53.733333333333334)" points="0,0 12,0 12,0" fill="#6B7279" visibility="hidden"/><text font-size="15" fill="black"><tspan x="1" y="23.116666666666667">Modify</tspan><tspan x="1" y="37.61666666666667">Alarm Settings</tspan></text></g><g class="technique T0809" transform="translate(0, 268.66666666666663)"><rect class="cell" height="53.733333333333334" width="159.16666666666666" fill="#ffd766" stroke="#6B7279"/><polygon class="sidebar" transform="translate(0, 53.733333333333334)" points="0,0 12,0 12,0" fill="#6B7279" visibility="hidden"/><text font-size="15" fill="black"><tspan x="1" y="30.366666666666667">Data Destruction</tspan></text></g><g class="technique T0881" transform="translate(0, 322.40000000000003)"><rect class="cell" height="53.733333333333334" width="159.16666666666666" fill="#ffd766" stroke="#6B7279"/><polygon class="sidebar" transform="translate(0, 53.733333333333334)" points="0,0 12,0 12,0" fill="#6B7279" visibility="hidden"/><text font-size="15" fill="black"><tspan x="1" y="30.366666666666667">Service Stop</tspan></text></g><g class="technique T0878" transform="translate(0, 376.1333333333333)"><rect class="cell" height="53.733333333333334" width="159.16666666666666" fill="#ffdf66" stroke="#6B7279"/><polygon class="sidebar" transform="translate(0, 53.733333333333334)" points="0,0 12,0 12,0" fill="#6B7279" visibility="hidden"/><text font-size="15" fill="black"><tspan x="1" y="30.366666666666667">Alarm Suppression</tspan></text></g><g class="technique T0892" transform="translate(0, 429.8666666666667)"><rect class="cell" height="53.733333333333334" width="159.16666666666666" fill="#ffdf66" stroke="#6B7279"/><polygon class="sidebar" transform="translate(0, 53.733333333333334)" points="0,0 12,0 12,0" fill="#6B7279" visibility="hidden"/><text font-size="15" fill="black"><tspan x="1" y="30.366666666666667">Change Credential</tspan></text></g><g class="technique T0803" transform="translate(0, 483.59999999999997)"><rect class="cell" height="53.733333333333334" width="159.16666666666666" fill="#ffe766" stroke="#6B7279"/><polygon class="sidebar" transform="translate(0, 53.733333333333334)" points="0,0 12,0 12,0" fill="#6B7279" visibility="hidden"/><text font-size="15" fill="black"><tspan x="1" y="23.116666666666667">Block</tspan><tspan x="1" y="37.61666666666667">Command Message</tspan></text></g><g class="technique T0804" transform="translate(0, 537.3333333333333)"><rect class="cell" height="53.733333333333334" width="159.16666666666666" fill="#ffe766" stroke="#6B7279"/><polygon class="sidebar" transform="translate(0, 53.733333333333334)" points="0,0 12,0 12,0" fill="#6B7279" visibility="hidden"/><text font-size="15" fill="black"><tspan x="1" y="23.116666666666667">Block</tspan><tspan x="1" y="37.61666666666667">Reporting Message</tspan></text></g><g class="technique T0805" transform="translate(0, 591.0666666666666)"><rect class="cell" height="53.733333333333334" width="159.16666666666666" fill="#ffe766" stroke="#6B7279"/><polygon class="sidebar" transform="translate(0, 53.733333333333334)" points="0,0 12,0 12,0" fill="#6B7279" visibility="hidden"/><text font-size="15" fill="black"><tspan x="1" y="30.366666666666667">Block Serial COM</tspan></text></g><g class="technique T0851" transform="translate(0, 644.8000000000001)"><rect class="cell" height="53.733333333333334" width="159.16666666666666" fill="#ffe766" stroke="#6B7279"/><polygon class="sidebar" transform="translate(0, 53.733333333333334)" points="0,0 12,0 12,0" fill="#6B7279" visibility="hidden"/><text font-size="15" fill="black"><tspan x="1" y="30.366666666666667">Rootkit</tspan></text></g><g class="technique T0814" transform="translate(0, 698.5333333333333)"><rect class="cell" height="53.733333333333334" width="159.16666666666666" fill="#ffffff" stroke="#6B7279"/><polygon class="sidebar" transform="translate(0, 53.733333333333334)" points="0,0 12,0 12,0" fill="#6B7279" visibility="hidden"/><text font-size="15" fill="#000000"><tspan x="1" y="30.366666666666667">Denial of Service</tspan></text></g><g class="technique T0835" transform="translate(0, 752.2666666666667)"><rect class="cell" height="53.733333333333334" width="159.16666666666666" fill="#ffffff" stroke="#6B7279"/><polygon class="sidebar" transform="translate(0, 53.733333333333334)" points="0,0 12,0 12,0" fill="#6B7279" visibility="hidden"/><text font-size="15" fill="#000000"><tspan x="1" y="23.116666666666667">Manipulate</tspan><tspan x="1" y="37.61666666666667">I/O Image</tspan></text></g></g><g class="subtechniques"/><g class="tactic-label"><text font-size="12" fill="black" font-weight="bold"><tspan text-anchor="middle" x="79.58333333333333" y="23.116666666666667">Inhibit</tspan><tspan text-anchor="middle" x="79.58333333333333" y="37.61666666666667">Response Function</tspan></text></g></g><g class="tactic impair-process-control" transform="translate(1591.6666666666665, 0)"><g class="techniques"><g class="technique T0839" transform="translate(0, 53.733333333333334)"><rect class="cell" height="53.733333333333334" width="159.16666666666666" fill="#ffb266" stroke="#6B7279"/><polygon class="sidebar" transform="translate(0, 53.733333333333334)" points="0,0 12,0 12,0" fill="#6B7279" visibility="hidden"/><text font-size="15" fill="black"><tspan x="1" y="30.366666666666667">Module Firmware</tspan></text></g><g class="technique T0855" transform="translate(0, 107.46666666666667)"><rect class="cell" height="53.733333333333334" width="159.16666666666666" fill="#ffc766" stroke="#6B7279"/><polygon class="sidebar" transform="translate(0, 53.733333333333334)" points="0,0 12,0 12,0" fill="#6B7279" visibility="hidden"/><text font-size="15" fill="black"><tspan x="1" y="23.116666666666667">Unauthorized</tspan><tspan x="1" y="37.61666666666667">Command Message</tspan></text></g><g class="technique T0836" transform="translate(0, 161.20000000000002)"><rect class="cell" height="53.733333333333334" width="159.16666666666666" fill="#ffcf66" stroke="#6B7279"/><polygon class="sidebar" transform="translate(0, 53.733333333333334)" points="0,0 12,0 12,0" fill="#6B7279" visibility="hidden"/><text font-size="15" fill="black"><tspan x="1" y="30.366666666666667">Modify Parameter</tspan></text></g><g class="technique T0856" transform="translate(0, 214.93333333333334)"><rect class="cell" height="53.733333333333334" width="159.16666666666666" fill="#ffd766" stroke="#6B7279"/><polygon class="sidebar" transform="translate(0, 53.733333333333334)" points="0,0 12,0 12,0" fill="#6B7279" visibility="hidden"/><text font-size="15" fill="black"><tspan x="1" y="23.116666666666667">Spoof</tspan><tspan x="1" y="37.61666666666667">Reporting Message</tspan></text></g><g class="technique T0806" transform="translate(0, 268.66666666666663)"><rect class="cell" height="53.733333333333334" width="159.16666666666666" fill="#ffdf66" stroke="#6B7279"/><polygon class="sidebar" transform="translate(0, 53.733333333333334)" points="0,0 12,0 12,0" fill="#6B7279" visibility="hidden"/><text font-size="15" fill="black"><tspan x="1" y="30.366666666666667">Brute Force I/O</tspan></text></g></g><g class="subtechniques"/><g class="tactic-label"><text font-size="12" fill="black" font-weight="bold"><tspan text-anchor="middle" x="79.58333333333333" y="23.116666666666667">Impair</tspan><tspan text-anchor="middle" x="79.58333333333333" y="37.61666666666667">Process Control</tspan></text></g></g><g class="tactic impact" transform="translate(1750.8333333333333, 0)"><g class="techniques"><g class="technique T0831" transform="translate(0, 53.733333333333334)"><rect class="cell" height="53.733333333333334" width="159.16666666666666" fill="#ffdf66" stroke="#6B7279"/><polygon class="sidebar" transform="translate(0, 53.733333333333334)" points="0,0 12,0 12,0" fill="#6B7279" visibility="hidden"/><text font-size="15" fill="black"><tspan x="1" y="23.116666666666667">Manipulation</tspan><tspan x="1" y="37.61666666666667">of Control</tspan></text></g><g class="technique T0832" transform="translate(0, 107.46666666666667)"><rect class="cell" height="53.733333333333334" width="159.16666666666666" fill="#ffdf66" stroke="#6B7279"/><polygon class="sidebar" transform="translate(0, 53.733333333333334)" points="0,0 12,0 12,0" fill="#6B7279" visibility="hidden"/><text font-size="15" fill="black"><tspan x="1" y="23.116666666666667">Manipulation</tspan><tspan x="1" y="37.61666666666667">of View</tspan></text></g><g class="technique T0882" transform="translate(0, 161.20000000000002)"><rect class="cell" height="53.733333333333334" width="159.16666666666666" fill="#ffdf66" stroke="#6B7279"/><polygon class="sidebar" transform="translate(0, 53.733333333333334)" points="0,0 12,0 12,0" fill="#6B7279" visibility="hidden"/><text font-size="15" fill="black"><tspan x="1" y="15.7">Theft</tspan><tspan x="1" y="30.366666666666667">of Operational</tspan><tspan x="1" y="45.03333333333333">Information</tspan></text></g><g class="technique T0813" transform="translate(0, 214.93333333333334)"><rect class="cell" height="53.733333333333334" width="159.16666666666666" fill="#ffe766" stroke="#6B7279"/><polygon class="sidebar" transform="translate(0, 53.733333333333334)" points="0,0 12,0 12,0" fill="#6B7279" visibility="hidden"/><text font-size="15" fill="black"><tspan x="1" y="30.366666666666667">Denial of Control</tspan></text></g><g class="technique T0815" transform="translate(0, 268.66666666666663)"><rect class="cell" height="53.733333333333334" width="159.16666666666666" fill="#ffe766" stroke="#6B7279"/><polygon class="sidebar" transform="translate(0, 53.733333333333334)" points="0,0 12,0 12,0" fill="#6B7279" visibility="hidden"/><text font-size="15" fill="black"><tspan x="1" y="30.366666666666667">Denial of View</tspan></text></g><g class="technique T0826" transform="translate(0, 322.40000000000003)"><rect class="cell" height="53.733333333333334" width="159.16666666666666" fill="#ffe766" stroke="#6B7279"/><polygon class="sidebar" transform="translate(0, 53.733333333333334)" points="0,0 12,0 12,0" fill="#6B7279" visibility="hidden"/><text font-size="15" fill="black"><tspan x="1" y="23.116666666666667">Loss</tspan><tspan x="1" y="37.61666666666667">of Availability</tspan></text></g><g class="technique T0827" transform="translate(0, 376.1333333333333)"><rect class="cell" height="53.733333333333334" width="159.16666666666666" fill="#ffe766" stroke="#6B7279"/><polygon class="sidebar" transform="translate(0, 53.733333333333334)" points="0,0 12,0 12,0" fill="#6B7279" visibility="hidden"/><text font-size="15" fill="black"><tspan x="1" y="30.366666666666667">Loss of Control</tspan></text></g><g class="technique T0828" transform="translate(0, 429.8666666666667)"><rect class="cell" height="53.733333333333334" width="159.16666666666666" fill="#ffe766" stroke="#6B7279"/><polygon class="sidebar" transform="translate(0, 53.733333333333334)" points="0,0 12,0 12,0" fill="#6B7279" visibility="hidden"/><text font-size="15" fill="black"><tspan x="1" y="15.7">Loss</tspan><tspan x="1" y="30.366666666666667">of Productivity</tspan><tspan x="1" y="45.03333333333333">and Revenue</tspan></text></g><g class="technique T0829" transform="translate(0, 483.59999999999997)"><rect class="cell" height="53.733333333333334" width="159.16666666666666" fill="#ffe766" stroke="#6B7279"/><polygon class="sidebar" transform="translate(0, 53.733333333333334)" points="0,0 12,0 12,0" fill="#6B7279" visibility="hidden"/><text font-size="15" fill="black"><tspan x="1" y="30.366666666666667">Loss of View</tspan></text></g><g class="technique T0879" transform="translate(0, 537.3333333333333)"><rect class="cell" height="53.733333333333334" width="159.16666666666666" fill="#ffffff" stroke="#6B7279"/><polygon class="sidebar" transform="translate(0, 53.733333333333334)" points="0,0 12,0 12,0" fill="#6B7279" visibility="hidden"/><text font-size="15" fill="#000000"><tspan x="1" y="30.366666666666667">Damage to Property</tspan></text></g><g class="technique T0837" transform="translate(0, 591.0666666666666)"><rect class="cell" height="53.733333333333334" width="159.16666666666666" fill="#ffffff" stroke="#6B7279"/><polygon class="sidebar" transform="translate(0, 53.733333333333334)" points="0,0 12,0 12,0" fill="#6B7279" visibility="hidden"/><text font-size="15" fill="#000000"><tspan x="1" y="30.366666666666667">Loss of Protection</tspan></text></g><g class="technique T0880" transform="translate(0, 644.8000000000001)"><rect class="cell" height="53.733333333333334" width="159.16666666666666" fill="#ffffff" stroke="#6B7279"/><polygon class="sidebar" transform="translate(0, 53.733333333333334)" points="0,0 12,0 12,0" fill="#6B7279" visibility="hidden"/><text font-size="15" fill="#000000"><tspan x="1" y="30.366666666666667">Loss of Safety</tspan></text></g></g><g class="subtechniques"/><g class="tactic-label"><text font-size="12" fill="black" font-weight="bold"><tspan text-anchor="middle" x="79.58333333333333" y="30.366666666666667">Impact</tspan></text></g></g></g><g transform="translate(854.4000000000001, 662.4000000000001)"><g transform="translate(0,5)"><rect class="header-box" width="288" height="182" stroke="black" fill="white" rx="5"/><rect class="label-cover" x="8" y="-10.111111640930176" width="40.0069465637207" height="17.33333396911621" fill="white" rx="5"/><text class="header-box-label" x="10" font-size="12" fill="black" y="3">legend</text><g class="header-box-content" fill="black" transform="translate(5, 0)"><g transform="translate(0, 8.666666666666686)"><g transform="translate(0, 5)"><g class="legendCells"><g class="cell" transform="translate(0,0)"><rect class="swatch" height="15" width="69.5" style="fill: rgb(255, 231, 102);"/><text class="label" transform="translate(34.75,&#10;          25)" style="text-anchor: middle;">2.0</text></g><g class="cell" transform="translate(69.5,0)"><rect class="swatch" height="15" width="69.5" style="fill: rgb(255, 212, 102);"/><text class="label" transform="translate(34.75,&#10;          25)" style="text-anchor: middle;">6.7</text></g><g class="cell" transform="translate(139,0)"><rect class="swatch" height="15" width="69.5" style="fill: rgb(255, 194, 102);"/><text class="label" transform="translate(34.75,&#10;          25)" style="text-anchor: middle;">11</text></g><g class="cell" transform="translate(208.5,0)"><rect class="swatch" height="15" width="69.5" style="fill: rgb(255, 175, 102);"/><text class="label" transform="translate(34.75,&#10;          25)" style="text-anchor: middle;">16</text></g></g></g></g></g></g></g></g></g></svg>